HIERARCHY
ROOT Hips
{
	OFFSET 0.000000 0.000000 0.000000
	CHANNELS 6 Xposition Yposition Zposition Xrotation Yrotation Zrotation
	JOINT LeftUpLeg_virtual
	{
		OFFSET 0.000000 0.000000 0.000000
		CHANNELS 3 Xrotation Yrotation Zrotation
		JOINT LeftUpLeg
		{
			OFFSET 10.205400 -3.823500 0.155100
			CHANNELS 3 Xrotation Yrotation Zrotation
			JOINT LeftLeg
			{
				OFFSET 0.708757 -12.982077 0.567790
				CHANNELS 3 Xrotation Yrotation Zrotation
				JOINT LeftFoot
				{
					OFFSET -0.708756 -10.717838 -2.184338
					CHANNELS 3 Xrotation Yrotation Zrotation
					JOINT LeftToeBase
					{
						OFFSET 0.108149 -7.191104 7.560241
						CHANNELS 3 Xrotation Yrotation Zrotation
						JOINT LeftToe_End
						{
							OFFSET 0.070230 0.081724 4.490308
							CHANNELS 3 Xrotation Yrotation Zrotation
							End Site
							{
								OFFSET 0 0 0
							}
						}
					}
				}
			}
		}
	}
	JOINT RightUpLeg_virtual
	{
		OFFSET 0.000000 0.000000 0.000000
		CHANNELS 3 Xrotation Yrotation Zrotation
		JOINT RightUpLeg
		{
			OFFSET -10.205400 -3.823500 0.005500
			CHANNELS 3 Xrotation Yrotation Zrotation
			JOINT RightLeg
			{
				OFFSET -0.708756 -12.982134 0.610632
				CHANNELS 3 Xrotation Yrotation Zrotation
				JOINT RightFoot
				{
					OFFSET 0.708754 -10.717769 -1.945823
					CHANNELS 3 Xrotation Yrotation Zrotation
					JOINT RightToeBase
					{
						OFFSET -0.108140 -7.191069 7.372968
						CHANNELS 3 Xrotation Yrotation Zrotation
						JOINT RightToe_End
						{
							OFFSET -0.070227 0.081735 4.479403
							CHANNELS 3 Xrotation Yrotation Zrotation
							End Site
							{
								OFFSET 0 0 0
							}
						}
					}
				}
			}
		}
	}
	JOINT Spine_virtual
	{
		OFFSET 0.000000 0.000000 0.000000
		CHANNELS 3 Xrotation Yrotation Zrotation
		JOINT Spine
		{
			OFFSET 0.000000 6.876099 0.125700
			CHANNELS 3 Xrotation Yrotation Zrotation
			JOINT Spine1
			{
				OFFSET 0.000000 5.730043 0.104720
				CHANNELS 3 Xrotation Yrotation Zrotation
				JOINT Spine1_split
				{
					OFFSET 0.000000 5.730043 0.104720
					CHANNELS 3 Xrotation Yrotation Zrotation
					JOINT Spine2
					{
						OFFSET 0.000000 5.730043 0.104720
						CHANNELS 3 Xrotation Yrotation Zrotation
						JOINT Neck_virtual
						{
							OFFSET 0.000000 0.000000 0.000000
							CHANNELS 3 Xrotation Yrotation Zrotation
							JOINT Neck
							{
								OFFSET 0.000000 10.314075 0.188496
								CHANNELS 3 Xrotation Yrotation Zrotation
								JOINT Head
								{
									OFFSET 0.000000 7.643700 -2.377400
									CHANNELS 3 Xrotation Yrotation Zrotation
									JOINT HeadTop_End
									{
										OFFSET 0.000000 43.788605 -13.619600
										CHANNELS 3 Xrotation Yrotation Zrotation
										End Site
										{
											OFFSET 0 0 0
										}
									}
								}
							}
						}
						JOINT LeftShoulder_virtual
						{
							OFFSET 0.000000 0.000000 0.000000
							CHANNELS 3 Xrotation Yrotation Zrotation
							JOINT LeftShoulder
							{
								OFFSET 2.196100 4.412489 0.087492
								CHANNELS 3 Xrotation Yrotation Zrotation
								JOINT LeftShoulder_split
								{
									OFFSET 2.196100 4.412489 0.087492
									CHANNELS 3 Xrotation Yrotation Zrotation
									JOINT LeftArm
									{
										OFFSET 8.771219 -2.981674 -0.026999
										CHANNELS 3 Xrotation Yrotation Zrotation
										JOINT LeftForeArm
										{
											OFFSET 8.512804 0.000000 -0.000000
											CHANNELS 3 Xrotation Yrotation Zrotation
											JOINT LeftHand
											{
												OFFSET 18.484802 0.000000 -0.000000
												CHANNELS 3 Xrotation Yrotation Zrotation
												End Site
												{
													OFFSET 0 0 0
												}
											}
										}
									}
								}
							}
						}
						JOINT RightShoulder_virtual
						{
							OFFSET 0.000000 0.000000 0.000000
							CHANNELS 3 Xrotation Yrotation Zrotation
							JOINT RightShoulder
							{
								OFFSET -2.196100 4.412496 0.070690
								CHANNELS 3 Xrotation Yrotation Zrotation
								JOINT RightShoulder_split
								{
									OFFSET -2.196100 4.412496 0.070690
									CHANNELS 3 Xrotation Yrotation Zrotation
									JOINT RightArm
									{
										OFFSET -8.771282 -2.981682 -0.094208
										CHANNELS 3 Xrotation Yrotation Zrotation
										JOINT RightForeArm
										{
											OFFSET -8.494598 0.000000 0.000000
											CHANNELS 3 Xrotation Yrotation Zrotation
											JOINT RightHand
											{
												OFFSET -18.483803 0.000000 0.000001
												CHANNELS 3 Xrotation Yrotation Zrotation
												End Site
												{
													OFFSET 0 0 0
												}
											}
										}
									}
								}
							}
						}
					}
				}
			}
		}
	}
}
MOTION
Frames: 10
Frame Time: 0.03333333
43.761444 30.781517 82.142990 0.000000 0.000000 0.000000 -112.011476 -63.367954 -176.797821 -53.155640 -6.871193 36.098550 95.342672 -10.699515 -8.025536 8.173850 -10.065602 -1.826016 -2.444164 -0.098663 -4.926754 0.000000 0.000000 0.000000 -87.294100 -69.970514 -157.632310 -54.110743 -2.808936 -54.730029 48.431953 11.298190 -7.024887 6.623333 -2.834232 14.077197 9.352411 0.538669 -4.319328 0.000000 0.000000 0.000000 -113.108076 -62.823308 -176.150101 15.558389 4.459183 3.168321 -2.490795 1.610880 6.902588 0.325090 1.519016 1.539673 0.000000 0.000000 0.000000 0.700077 1.640902 5.676627 20.126462 5.298429 11.426291 14.603535 37.761766 -19.314332 0.000000 0.000000 0.000000 0.254707 1.470287 6.446310 1.880424 -11.097556 10.891299 3.396600 1.706489 1.363282 1.302001 12.821973 -1.685867 3.847540 -35.286793 -0.548215 0.000000 0.000000 0.000000 -1.471485 2.088643 6.275990 1.885154 4.765660 17.275176 -0.388817 -1.400956 -0.391932 -21.936696 21.923499 16.298162 2.483946 20.921165 -2.480989 0.000000 0.000000 0.000000 
46.631393 28.648363 86.648087 0.000000 0.000000 0.000000 -111.692683 -59.994879 -176.866437 -53.449700 -6.243677 32.352212 94.844061 -7.667524 -6.569777 12.749474 -7.288360 -1.616444 -0.296909 -0.341871 -4.200092 0.000000 0.000000 0.000000 -92.689437 -65.596112 -163.720386 -52.856068 -3.175780 -50.747595 41.485507 9.317585 -6.772755 13.911022 -4.372726 11.841874 8.080523 -0.148227 -1.774594 0.000000 0.000000 0.000000 -114.398190 -59.081976 -178.875087 16.208186 4.530364 2.736793 -1.760405 2.498804 6.203696 0.183780 1.148458 2.030483 0.000000 0.000000 0.000000 0.730345 2.529915 4.804825 20.215721 5.264098 9.231682 14.225668 34.941496 -18.466091 0.000000 0.000000 0.000000 0.507410 2.287893 5.409181 2.138248 -10.408544 9.821783 1.819271 2.535277 1.207902 -1.302261 17.691983 -0.701452 4.144677 -36.187538 -0.412751 0.000000 0.000000 0.000000 -1.323136 3.061773 5.423782 1.567422 7.051509 19.013636 -0.830087 -3.277013 -0.307256 -23.695916 22.056134 18.967784 2.980834 27.504101 -2.293290 0.000000 0.000000 0.000000 
49.544128 25.634272 91.628250 0.000000 0.000000 0.000000 -112.933223 -53.374083 -177.699515 -52.930565 -4.317179 29.823925 92.315764 -3.937466 -4.883461 14.917002 -2.931129 -4.151977 1.988579 -0.412478 -3.039869 0.000000 0.000000 0.000000 -100.705511 -58.672063 -172.151817 -53.921898 1.443905 -44.300576 36.079498 7.609561 -7.483845 21.189123 -3.994448 12.800786 6.528363 -1.163434 0.430019 0.000000 0.000000 0.000000 -114.721838 -53.236421 -179.713397 17.086693 4.152613 2.259836 -0.887296 3.303615 5.911123 0.628684 0.626850 2.192102 0.000000 0.000000 0.000000 0.714061 3.424477 4.462548 19.367085 4.885451 7.297051 13.360934 31.823327 -17.371780 0.000000 0.000000 0.000000 0.755053 3.113183 4.999043 2.273161 -8.369087 8.062877 1.198039 3.506228 0.130394 -4.483904 23.150400 -0.233334 3.685346 -43.195861 -0.638747 0.000000 0.000000 0.000000 -1.224597 3.962416 5.163022 1.325336 8.459193 20.214551 -1.118431 -3.972031 0.238914 -26.387471 20.667727 22.576307 2.886109 36.477691 -1.607202 0.000000 0.000000 0.000000 
52.441101 21.772387 96.779785 0.000000 0.000000 0.000000 -115.315600 -43.572758 -179.041484 -52.195930 -0.553330 29.523042 87.929226 -1.154016 -2.955147 14.157493 1.333125 -9.000497 3.192939 -0.420439 -1.146407 0.000000 0.000000 0.000000 -107.517935 -49.164651 -179.432621 -59.551279 9.357845 -34.851392 33.898891 7.004501 -8.910619 26.601154 -0.985102 16.755731 4.940102 -2.181268 1.232432 0.000000 0.000000 0.000000 -114.664027 -45.478357 -179.822147 18.083459 3.076351 1.735890 0.064370 3.798363 6.124472 0.890523 -1.120679 2.113555 0.000000 0.000000 0.000000 0.770144 4.124948 4.716524 18.206713 4.175279 5.912247 12.076491 28.289739 -16.059988 0.000000 0.000000 0.000000 1.016620 3.813084 5.310510 2.468898 -5.990963 5.543847 1.901178 4.014222 -1.366655 -6.581900 27.571006 -0.985728 2.883814 -54.705693 -1.177568 0.000000 0.000000 0.000000 -1.089234 4.647807 5.613288 1.293434 8.538028 20.841074 -1.379659 -3.338324 0.711540 -28.954217 18.143793 26.851810 1.803282 46.570224 -0.201208 0.000000 0.000000 0.000000 
55.356178 17.652725 101.776459 0.000000 0.000000 0.000000 -117.592826 -32.208737 179.625683 -53.104072 4.766282 32.481170 83.315269 -0.446980 -1.726780 11.500426 4.822899 -14.118498 3.394607 -0.314141 1.189719 0.000000 0.000000 0.000000 -111.754578 -37.939293 175.925538 -71.303193 16.523548 -21.764731 37.030803 6.903090 -10.431896 28.664231 3.232713 21.543574 4.050045 -2.871895 0.679235 0.000000 0.000000 0.000000 -114.509050 -36.092591 -179.622842 19.000674 1.402040 1.274661 0.986620 3.958568 6.664606 1.141033 -2.899404 1.923628 0.000000 0.000000 0.000000 0.916012 4.517190 5.326156 17.561620 3.043683 5.372398 11.156230 24.329409 -14.841619 0.000000 0.000000 0.000000 1.363240 4.201219 6.032780 2.889330 -4.029112 2.325448 3.700862 3.385424 -2.453219 -6.808414 28.327764 -2.999122 3.175119 -65.536013 -1.102364 0.000000 0.000000 0.000000 -0.706899 5.043239 6.441905 1.450423 6.961221 21.322512 -1.646629 -2.129967 0.936683 -30.352654 15.522208 31.193136 -0.468623 55.881780 1.947316 0.000000 0.000000 0.000000 
58.297562 13.985310 106.458344 0.000000 0.000000 0.000000 -118.917637 -21.050643 178.282841 -55.672134 10.175536 39.239406 80.667642 -1.586826 -2.411558 8.410300 7.508460 -16.960842 3.625917 -0.112180 3.150847 0.000000 0.000000 0.000000 -112.949479 -27.081908 173.263909 -86.136533 18.251843 -6.872973 45.244283 6.271681 -11.442225 26.933603 6.698760 24.899323 4.418699 -3.095024 -0.602280 0.000000 0.000000 0.000000 -113.995058 -26.453878 -179.143704 19.471292 -0.674848 0.949890 1.750643 3.831665 7.127331 1.093568 -4.912514 1.410610 0.000000 0.000000 0.000000 1.164862 4.576581 5.864242 17.868238 1.888678 5.760947 11.166406 20.075393 -13.775356 0.000000 0.000000 0.000000 1.858697 4.299180 6.584535 3.550499 -3.419120 -1.216644 5.376408 2.045845 -2.620962 -4.519583 25.122156 -5.942601 5.599985 -71.453669 0.882389 0.000000 0.000000 0.000000 -0.044476 5.121667 7.148641 1.713974 3.696098 22.009050 -1.583188 -0.285762 0.523852 -30.294508 13.716254 34.837708 -3.615622 62.998810 4.564286 0.000000 0.000000 0.000000 
61.159927 11.395952 110.351807 0.000000 0.000000 0.000000 -118.943277 -12.340828 176.853228 -58.781462 13.857127 48.327926 80.627740 -3.411263 -5.331296 5.370468 9.733005 -15.217728 4.764475 0.271627 3.826764 0.000000 0.000000 0.000000 -111.765056 -18.069752 172.160382 -98.074679 13.962468 4.967550 57.522610 4.399188 -10.947641 23.208274 8.148936 24.725734 4.920281 -2.896917 -1.451283 0.000000 0.000000 0.000000 -113.650543 -17.736794 -179.457879 18.997915 -2.705243 0.899698 2.205783 3.603443 7.088261 0.722141 -7.473181 0.801039 0.000000 0.000000 0.000000 1.518401 4.399427 5.874115 19.007488 0.672531 6.755770 12.209924 15.685243 -12.809796 0.000000 0.000000 0.000000 2.363448 4.156454 6.459239 4.340425 -4.319566 -4.190213 6.334655 0.496415 -2.047754 -0.413346 18.259642 -8.258934 8.548560 -72.605000 3.577044 0.000000 0.000000 0.000000 0.806539 5.063166 7.248746 2.202453 -1.075222 22.954217 -1.725992 1.043528 -0.410695 -29.330926 13.107246 37.021357 -6.376420 67.089096 6.411695 0.000000 0.000000 0.000000 
63.824593 10.299225 113.489563 0.000000 0.000000 0.000000 -117.733173 -6.684074 175.306777 -60.542401 14.664373 57.242104 82.671011 -5.577173 -9.407116 3.763739 10.598724 -9.945912 5.943983 0.818749 3.201150 0.000000 0.000000 0.000000 -109.371519 -11.280054 171.893909 -104.447540 7.291102 12.275803 70.619764 1.969828 -8.512040 19.280757 8.023662 20.948301 3.817044 -2.425570 -1.183964 0.000000 0.000000 0.000000 -113.382151 -10.884716 -179.800523 17.437847 -4.255963 1.077069 2.265483 3.450516 6.231609 -0.049157 -9.650179 0.541367 0.000000 0.000000 0.000000 1.924191 4.129901 5.108220 20.314547 -0.427460 7.882759 14.138926 11.485912 -11.947874 0.000000 0.000000 0.000000 2.760369 3.895183 5.347178 5.121785 -5.996320 -5.746794 7.043972 -0.267779 -1.666609 4.926519 10.087960 -8.439325 10.838316 -72.890563 5.911203 0.000000 0.000000 0.000000 1.687081 4.899515 6.379961 2.913548 -6.984617 24.074817 -1.667040 2.022710 -1.226045 -28.505245 13.490969 37.053216 -7.817759 69.140694 6.689408 0.000000 0.000000 0.000000 
66.059036 10.360691 115.629807 0.000000 0.000000 0.000000 -115.946122 -3.528767 174.007334 -58.717080 13.182662 63.625125 84.729405 -8.430082 -12.858176 4.552786 9.100428 -3.795443 6.010155 1.311442 1.948284 0.000000 0.000000 0.000000 -106.672351 -6.267930 171.591837 -105.894508 2.147857 16.264005 80.453174 0.786497 -5.537227 15.663113 8.316150 16.019710 1.890075 -1.900789 -0.237241 0.000000 0.000000 0.000000 -113.339961 -6.003781 179.501292 14.800093 -5.006571 1.281743 1.925364 3.422152 4.580860 -1.011537 -11.486514 0.501587 0.000000 0.000000 0.000000 2.301494 3.905219 3.595411 20.470103 -1.368739 8.418834 15.722252 7.916111 -10.945012 0.000000 0.000000 0.000000 2.941188 3.764811 3.446428 6.024979 -8.042783 -4.931266 7.443897 -0.379342 -1.776852 11.996048 4.183431 -6.672439 13.356524 -76.872632 8.948405 0.000000 0.000000 0.000000 2.377456 4.707486 4.608487 3.891662 -13.438594 24.797825 -1.609669 2.795190 -1.209085 -28.935700 13.439429 34.846840 -8.996751 71.564215 6.830450 0.000000 0.000000 0.000000 
67.660690 10.986341 116.897942 0.000000 0.000000 0.000000 -114.692673 -2.042758 173.196044 -54.255082 9.914910 66.661711 84.725683 -11.732429 -14.799335 8.125740 5.005331 1.118480 4.803933 1.687249 0.681453 0.000000 0.000000 0.000000 -105.009405 -2.533955 171.176507 -103.930563 0.956647 17.962539 85.973674 1.564341 -3.480812 12.776466 10.055847 13.156668 0.214600 -1.339946 0.689233 0.000000 0.000000 0.000000 -113.874014 -2.865771 178.581320 11.645023 -4.785835 1.363987 1.303457 3.600183 2.447940 -1.340811 -11.914486 1.188757 0.000000 0.000000 0.000000 2.617871 3.841000 1.636645 18.618691 -2.434375 8.016480 15.925800 4.984041 -9.874035 0.000000 0.000000 0.000000 2.820654 3.889277 1.219791 7.277123 -9.687559 -1.442425 8.365850 -0.025104 -2.517539 20.383875 1.349137 -4.414491 29.121283 -85.922728 25.504444 0.000000 0.000000 0.000000 2.834718 4.628353 2.260417 5.088203 -19.950300 24.508532 -1.723914 3.142940 -0.187193 -32.204871 11.438591 30.603725 -12.730420 76.578401 9.854740 0.000000 0.000000 0.000000 
